<?xml version="1.0" standalone="no"?>
<!DOCTYPE svg PUBLIC "-//W3C//DTD SVG 20010904//EN"
 "http://www.w3.org/TR/2001/REC-SVG-20010904/DTD/svg10.dtd">
<svg version="1.0" xmlns="http://www.w3.org/2000/svg"
 width="287.000000pt" height="287.000000pt" viewBox="0 0 287.000000 287.000000"
 preserveAspectRatio="xMidYMid meet">
<metadata>
Created by potrace 1.14, written by Peter Selinger 2001-2017
</metadata>
<g transform="translate(0.000000,287.000000) scale(0.100000,-0.100000)"
fill="#000000" stroke="none">
<path d="M230 1415 l0 -1215 1215 0 1215 0 0 1215 0 1215 -1215 0 -1215 0 0
-1215z m2330 0 l0 -1115 -1115 0 -1115 0 0 1115 0 1115 1115 0 1115 0 0 -1115z"/>
<path d="M1640 1650 c0 -55 -2 -100 -3 -100 -2 0 -19 8 -38 17 -46 23 -127 21
-176 -4 -87 -45 -127 -167 -89 -268 42 -109 189 -161 276 -97 27 21 28 21 33
2 4 -16 14 -20 51 -20 l46 0 0 285 0 285 -50 0 -50 0 0 -100z m-42 -182 c48
-52 51 -127 5 -172 -103 -103 -248 60 -147 166 37 37 109 40 142 6z"/>
<path d="M626 1648 c-3 -13 -6 -33 -6 -45 0 -20 -5 -23 -35 -23 -35 0 -35 0
-35 -45 0 -45 0 -45 35 -45 l35 0 0 -120 c0 -118 0 -120 29 -152 26 -30 35
-33 100 -36 l71 -4 0 46 0 46 -38 0 c-21 0 -43 5 -50 12 -8 8 -12 47 -12 110
l0 98 55 0 55 0 0 45 0 45 -55 0 -55 0 0 45 0 45 -44 0 c-37 0 -45 -4 -50 -22z"/>
<path d="M1007 1576 c-87 -24 -139 -96 -139 -195 0 -69 19 -117 61 -156 92
-88 249 -66 308 43 93 170 -48 357 -230 308z m123 -111 c28 -29 37 -103 20
-145 -13 -31 -54 -60 -85 -60 -31 0 -72 29 -85 60 -18 43 -8 116 20 145 37 39
93 39 130 0z"/>
<path d="M1956 1579 c-149 -36 -199 -249 -84 -356 108 -101 294 -47 328 96 39
164 -87 298 -244 260z m100 -101 c46 -22 59 -118 24 -175 -37 -61 -121 -52
-157 18 -30 58 -5 141 50 164 31 13 44 12 83 -7z"/>
<path d="M2283 1575 c-61 -43 -12 -128 60 -103 48 17 49 85 1 106 -32 15 -35
15 -61 -3z"/>
<path d="M2281 1283 c-26 -21 -31 -64 -11 -88 16 -20 74 -19 94 1 52 51 -27
132 -83 87z"/>
</g>
</svg>
